# Wavefront OBJ exported by MilkShape 3D

mtllib skbronzechestMesh.mtl

v 12.011120 -1.494549 -15.714836
v 12.011120 -1.494549 -15.714836
v 12.011121 -1.494552 15.485158
v 12.011121 -1.494552 15.485158
v 12.011121 -1.494552 15.485158
v -12.003771 -1.494552 15.485157
v -12.003771 -1.494552 15.485157
v 12.011121 -1.494551 -15.714841
v 12.011121 -1.494551 -15.714841
v 12.011121 -1.494551 -15.714841
v 12.011121 -1.494553 15.485156
v 12.011121 -1.494553 15.485156
v 12.011121 -1.494553 15.485156
v -12.003771 -1.494551 -15.714836
v -12.003771 -1.494551 -15.714836
v -12.003771 -1.494551 -15.714836
v -12.003769 -1.494554 15.485157
v -12.003769 -1.494554 15.485157
v -12.003769 -1.494554 15.485157
v -12.003769 -1.494551 -15.714834
v -12.003769 -1.494551 -15.714834
v -12.003769 -1.494551 -15.714834
v 12.011124 11.434265 15.485160
v 12.011124 11.434265 15.485160
v 12.011124 11.434265 15.485160
v 12.011124 11.434265 15.485160
v 12.011124 11.434264 -15.714835
v 12.011124 11.434264 -15.714835
v 12.011124 11.434264 -15.714835
v -12.003769 11.432104 -15.714835
v -12.003769 11.432104 -15.714835
v -12.003769 11.432104 -15.714835
v -12.003769 11.432104 -15.714835
v -12.003771 11.431651 15.485160
v -12.003771 11.431651 15.485160
v -12.003771 11.431651 15.485160
v 12.020699 16.501400 -15.714842
v 12.020699 16.501400 -15.714842
v 12.020700 16.501394 15.485166
v 12.020700 16.501394 15.485166
v 0.020698 22.764097 15.485155
v 0.020698 22.764097 15.485155
v 12.020698 16.501400 -15.714842
v 12.020698 16.501400 -15.714842
v 12.020698 16.501400 -15.714842
v 12.020698 16.501392 15.485166
v 12.020698 16.501392 15.485166
v 12.020698 16.501392 15.485166
v 0.020700 22.764097 15.485155
v 0.020700 22.764097 15.485155
v 0.020706 22.764086 -15.714839
v 0.020706 22.764086 -15.714839
v 0.020706 22.764086 -15.714839
v 0.020706 22.764086 -15.714839
v -7.299307 20.739771 15.485152
v -7.299307 20.739771 15.485152
v -7.299307 20.739771 15.485152
v -7.299307 20.739771 15.485152
v -7.299295 20.739754 -15.714828
v -7.299295 20.739754 -15.714828
v -7.299295 20.739754 -15.714828
v -7.299295 20.739754 -15.714828
v -11.979305 16.501408 15.485149
v -11.979305 16.501408 15.485149
v -11.979305 16.501408 15.485149
v -11.979305 16.501408 15.485149
v -11.979299 16.501402 -15.714826
v -11.979299 16.501402 -15.714826
v -11.979299 16.501402 -15.714826
v -11.979299 16.501402 -15.714826
v -11.979299 16.501402 -15.714826
v 7.340703 20.739746 15.485154
v 7.340703 20.739746 15.485154
v 7.340703 20.739746 15.485154
v 7.340703 20.739746 15.485154
v 7.340701 20.739750 -15.714849
v 7.340701 20.739750 -15.714849
v 7.340701 20.739750 -15.714849
v 7.340701 20.739750 -15.714849
v -12.003771 11.431651 15.485161
v -12.003771 11.431651 15.485161
v -12.003770 11.431651 15.485161
v -12.003770 11.431651 15.485161
v -12.003771 11.432103 -15.714835
v -12.003771 11.432103 -15.714835
v -12.003771 11.432103 -15.714835
v -12.003771 11.432103 -15.714835
v 12.011124 11.434264 -15.714842
v 12.011124 11.434264 -15.714842
v 12.011124 11.434264 -15.714835
v 12.011124 11.434264 -15.714835
v 12.011124 11.434265 15.485161
v 12.011124 11.434265 15.485161
v 12.011124 11.434265 15.485161
v 12.011124 11.434265 15.485161
# 95 vertices

vt 0.501961 0.011765
vt 0.501961 0.219608
vt 0.007843 0.219608
vt 0.933333 0.592157
vt 0.933333 0.505882
vt 0.603922 0.592157
vt 0.501961 0.301961
vt 0.007843 0.301961
vt 0.603922 0.505882
vt 0.007843 0.011765
vt 0.588235 0.992157
vt 0.952941 0.780392
vt 0.588235 0.780392
vt 0.952941 0.992157
vt 0.933333 0.929412
vt 0.933333 0.850980
vt 0.607843 0.929412
vt 0.501961 0.607843
vt 0.007843 0.698039
vt 0.007843 0.607843
vt 0.607843 0.850980
vt 0.501961 0.698039
vt 0.968627 0.505882
vt 0.576471 0.505882
vt 0.968627 0.996078
vt 0.576471 0.996078
vt 0.501961 0.392157
vt 0.007843 0.498039
vt 0.007843 0.392157
vt 0.501961 0.498039
vt 0.933333 0.760784
vt 0.933333 0.670588
vt 0.607843 0.760784
vt 0.607843 0.670588
vt 0.933333 0.996078
vt 0.933333 0.925490
vt 0.607843 0.996078
vt 0.501961 0.780392
vt 0.501961 0.992157
vt 0.007843 0.992157
vt 0.007843 0.780392
vt 0.607843 0.592157
vt 0.607843 0.925490
vt 0.615686 0.450980
vt 0.525490 0.368627
vt 0.988235 0.368627
vt 0.898039 0.450980
vt 0.756863 0.490196
vt 0.525490 0.266667
vt 0.988235 0.266667
vt 0.525490 0.270588
vt 0.588235 0.996078
vt 0.988235 0.011765
vt 0.525490 0.011765
vt 0.894118 0.501961
vt 0.619608 0.564706
vt 0.619608 0.505882
vt 0.894118 0.564706
vt 0.674510 0.611765
vt 0.843137 0.611765
vt 0.756863 0.635294
vt 0.619608 0.501961
# 62 texture coordinates

vn -1.000000 -0.000000 -0.000000
vn 0.844223 -0.535992 0.000000
vn 0.999988 -0.004827 0.000000
vn -0.999988 0.004827 -0.000000
vn -0.844223 0.535992 -0.000000
vn -0.962690 0.270606 -0.000000
vn 1.000000 -0.000000 0.000000
vn 0.707107 0.000000 -0.707107
vn -0.671268 -0.741215 -0.000000
vn -0.549546 -0.835463 -0.000000
vn 0.549546 0.835464 0.000000
vn 0.845318 0.534263 0.000000
vn 0.411321 0.911490 -0.000000
vn -0.411322 -0.911490 0.000000
vn 0.963943 0.266108 0.000000
vn -0.000000 1.000000 0.000000
vn -0.411321 0.911491 -0.000001
vn -0.091793 0.995778 -0.000000
vn -0.549545 0.835464 -0.000001
vn 0.091795 0.995778 -0.000000
vn -0.091795 -0.995778 0.000000
vn 0.411321 -0.911491 0.000001
vn 0.091793 -0.995778 0.000000
vn 0.549545 -0.835464 0.000001
vn 0.000000 -1.000000 -0.000000
vn -0.894427 0.000000 0.447214
vn -0.999998 0.001889 -0.000000
vn -0.447214 0.000000 0.894427
vn 0.999998 -0.001890 0.000000
vn 0.671267 -0.741216 0.000000
vn -0.000001 -0.000001 -1.000000
vn -0.000000 -0.000001 1.000000
# 32 normals

g skbronzechestTex0
usemtl skbronzechestTex0
s 1
f 18/1/1 35/2/1 33/3/1
f 63/4/2 80/5/3 67/6/3
f 83/2/4 66/7/5 71/8/6
f 87/3/4 83/2/4 71/8/6
f 80/5/3 84/9/3 67/6/3
f 18/1/1 33/3/1 15/10/1
f 30/11/7 6/12/8 21/13/7
f 36/14/8 6/12/8 30/11/7
f 46/15/9 72/16/10 43/17/9
f 74/18/11 37/19/12 76/20/13
f 43/17/9 72/16/10 78/21/14
f 74/18/11 39/22/15 37/19/12
f 7/23/16 5/24/16 20/25/16
f 20/25/16 5/24/16 1/26/16
f 58/27/17 51/28/18 62/29/19
f 58/27/17 41/30/20 51/28/18
f 49/31/21 55/32/22 53/33/23
f 53/33/23 55/32/22 59/34/24
f 12/24/25 14/25/25 8/26/25
f 12/24/25 17/23/25 14/25/25
f 4/12/1 26/14/1 2/13/26
f 66/7/5 58/27/17 62/29/19
f 72/16/10 49/31/21 78/21/14
f 94/35/27 47/36/27 88/37/27
f 78/21/14 49/31/21 53/33/23
f 41/30/20 74/18/11 76/20/13
f 41/30/20 76/20/13 51/28/18
f 26/14/1 29/11/28 2/13/26
f 23/38/7 11/39/7 9/40/7
f 39/22/15 92/38/29 90/41/29
f 59/34/24 63/4/2 68/42/30
f 55/32/22 63/4/2 59/34/24
f 88/37/27 47/36/27 44/43/27
f 27/41/7 23/38/7 9/40/7
f 39/22/15 90/41/29 37/19/12
f 66/7/5 62/29/19 71/8/6
f 77/44/31 38/45/31 70/46/31
f 77/44/31 70/46/31 61/47/31
f 52/48/31 77/44/31 61/47/31
f 38/45/31 91/49/31 86/50/31
f 38/45/31 86/50/31 70/46/31
f 42/48/32 57/47/32 75/44/32
f 75/44/32 57/47/32 65/46/32
f 40/45/32 65/46/32 82/50/32
f 40/45/32 82/50/32 93/51/32
f 6/12/8 25/52/31 3/13/31
f 29/11/28 31/14/32 22/12/32
f 36/14/8 25/52/31 6/12/8
f 2/13/26 29/11/28 22/12/32
f 24/51/32 19/53/32 13/54/32
f 32/50/31 28/49/31 16/53/31
f 24/51/32 34/50/32 19/53/32
f 81/55/31 48/56/31 95/57/31
f 64/58/31 48/56/31 81/55/31
f 64/58/31 73/59/31 48/56/31
f 56/60/31 73/59/31 64/58/31
f 56/60/31 50/61/31 73/59/31
f 85/55/32 45/56/32 69/58/32
f 45/56/32 79/59/32 69/58/32
f 69/58/32 79/59/32 60/60/32
f 79/59/32 54/61/32 60/60/32
f 89/62/32 45/56/32 85/55/32
f 28/49/31 10/54/31 16/53/31
f 75/44/32 65/46/32 40/45/32
# 64 triangles in group

# 64 triangles total

